# xmcd
#
# Track frame offsets:
#	150
#	13392
#	27836
#	42660
#	59579
#	83706
#	103236
#	117675
#	134574
#	150643
#	153560
#	170469
#	185085
#
# Disc length: 2828 seconds
#
# Revision: 1
# Processed by: cddbd v1.5.2PL0 Copyright (c) Steve Scherf et al.
# Submitted via: audiograbber 1.83.01
#
DISCID=bf0b0a0d
DTITLE=the broken family band - welcome home, loser
DYEAR=1900
DGENRE=
TTITLE0=happy days are here again
TTITLE1=living in sin
TTITLE2=o princess
TTITLE3=where the hell is my baby
TTITLE4=yer little bedroom
TTITLE5=john belushi
TTITLE6=cocktail lounge
TTITLE7=we already said goodbye
TTITLE8=a place you deserve
TTITLE9=roman johnson one
TTITLE10=the last song
TTITLE11=wherever you go
TTITLE12=coping with fear
EXTD=
EXTT0=
EXTT1=
EXTT2=
EXTT3=
EXTT4=
EXTT5=
EXTT6=
EXTT7=
EXTT8=
EXTT9=
EXTT10=
EXTT11=
EXTT12=
PLAYORDER=
